<?xml version="1.0" encoding="utf-8" ?><svg xmlns="http://www.w3.org/2000/svg" xmlns:xlink="http://www.w3.org/1999/xlink" width="1024" height="1024" viewBox="0 0 1024 1024"><path fill="#E3E3D9" d="M0 0L1024 0L1024 1024L0 1024L0 0Z"/><path fill="#475D43" d="M376.356 356.244C422.912 355.766 470.5 356.365 517.134 356.306L583.235 356.273C594.548 356.284 606.787 355.994 618.028 356.413C618.062 364.679 618.448 423.31 617.316 425.512C614.215 426.574 614.074 425.731 613.414 423.087C602.969 381.279 557.305 361.374 517.556 360.433C516.045 362.685 516.927 426.827 516.617 435.132C497.734 439.838 487.7 446.233 475.478 460.886L475.348 360.352C438.697 361.423 402.816 374.866 384.585 407.794C382.257 411.998 379.311 423.997 376.306 426.025L375.479 425.77C374.857 424.574 374.432 423.097 374.451 421.38C374.687 400.015 374.292 378.485 374.642 357.179C374.652 356.578 375.536 356.516 376.356 356.244Z"/><path fill="#475D43" d="M562.71 453.25C566.251 452.995 572.39 452.088 575.025 454.149C575.467 455.722 575.435 454.907 574.808 456.664C573.292 457.807 571.387 457.218 569.151 457.386C542.382 459.399 532.198 487.46 520.529 507.087C514.105 517.89 506.423 529.795 498.124 538.567C474.231 563.821 440.57 576.423 406.375 577.671C403.232 577.838 394.174 578.947 392.805 575.485C394.506 572.264 398.716 573.759 401.864 573.478C427.708 571.167 437.296 542.231 449.137 523.297C456.097 511.372 463.176 499.687 472.499 489.401C496.226 463.223 528.413 454.843 562.71 453.25Z"/><path fill="#475D43" d="M516.195 560.306C517.827 564.917 516.963 652.216 516.684 662.821C532.858 663.188 550.559 662.932 565.24 660.768C604.47 654.984 640.073 631.636 646.231 590.283C646.56 590.053 646.89 589.823 647.22 589.593C648.984 589.595 648.232 589.32 649.574 590.382C650.94 593.353 650.178 657.946 649.871 667.365L520 667.188C503.353 667.301 486.706 667.31 470.059 667.214C465.995 667.207 445.34 667.643 443.356 666.536C443.015 664.92 443.074 665.01 443.442 663.378C445.506 662.213 471.247 662.67 475.405 662.602L475.381 591.636C495.853 584.601 504.684 579.301 516.195 560.306Z"/></svg>